<?xml version="1.0" encoding="UTF-8" standalone="no"?>
<!-- Created with Inkscape (http://www.inkscape.org/) -->

<svg
   width="7.9382873mm"
   height="7.9375mm"
   viewBox="0 0 7.9382872 7.9375"
   version="1.1"
   id="svg1329"
   sodipodi:docname="Malha Rapport Pequena.svg"
   xml:space="preserve"
   inkscape:version="1.2.1 (9c6d41e410, 2022-07-14)"
   xmlns:inkscape="http://www.inkscape.org/namespaces/inkscape"
   xmlns:sodipodi="http://sodipodi.sourceforge.net/DTD/sodipodi-0.dtd"
   xmlns="http://www.w3.org/2000/svg"
   xmlns:svg="http://www.w3.org/2000/svg"><sodipodi:namedview
     id="namedview1331"
     pagecolor="#ffffff"
     bordercolor="#000000"
     borderopacity="0.25"
     inkscape:showpageshadow="2"
     inkscape:pageopacity="0.0"
     inkscape:pagecheckerboard="0"
     inkscape:deskcolor="#d1d1d1"
     inkscape:document-units="mm"
     showgrid="false"
     showguides="true"
     inkscape:zoom="1.4142136"
     inkscape:cx="113.13708"
     inkscape:cy="32.880464"
     inkscape:window-width="1452"
     inkscape:window-height="1375"
     inkscape:window-x="501"
     inkscape:window-y="16"
     inkscape:window-maximized="0"
     inkscape:current-layer="svg1329"><sodipodi:guide
       position="64.488089,-44.718914"
       orientation="1,0"
       id="guide4703"
       inkscape:locked="false" /><sodipodi:guide
       position="62.053769,-56.544083"
       orientation="0,-1"
       id="guide4705"
       inkscape:locked="false" /><sodipodi:guide
       position="11.820461,7.9372066"
       orientation="0,-1"
       id="guide4707"
       inkscape:locked="false" /><sodipodi:guide
       position="0.00030002281,-4.1965733"
       orientation="1,0"
       id="guide4709"
       inkscape:locked="false" /></sodipodi:namedview><defs
     id="defs1326"><clipPath
       clipPathUnits="userSpaceOnUse"
       id="clipPath6556"><path
         id="path6558"
         style="fill:#000000;fill-opacity:0.17689;stroke:none;stroke-width:0.999977;paint-order:stroke fill markers;stop-color:#000000"
         d="M 76.935571,55.103157 H 141.42365 V 119.58484 H 76.935571 Z" /></clipPath></defs><path
     id="path4161"
     style="fill:none;fill-opacity:1;fill-rule:evenodd;stroke:#dacf9f;stroke-width:0.230299px;stroke-linecap:butt;stroke-linejoin:miter;stroke-opacity:1"
     d="m 75.60892,65.744726 55.00026,55.000264 m -2.71615,-67.199998 c 4.86172,4.861719 9.72343,9.723437 14.58515,14.585156 m 0.12858,38.294842 c -4.74045,4.74045 -9.48091,9.4809 -14.22136,14.22135 m 2.71615,-67.199997 -55.397134,55.397137 m 0.04414,-2.42641 13.989843,13.98984 M 87.352981,53.537644 142.35324,108.5379 m 0.32701,-42.719106 C 124.4681,84.030946 106.25595,102.2431 88.043794,120.45525 M 90.429212,53.585983 75.612545,68.402649 M 75.484269,55.947502 C 97.102933,77.566165 118.7216,99.184827 140.34026,120.80349 m -3.5099,-67.99375 5.29167,5.291667 m 0.16164,58.319243 c -1.41111,1.41111 -2.82222,2.82223 -4.23333,4.23334 m 3.97292,-68.456773 -66.278125,66.278123"
     sodipodi:nodetypes="cccccccccccccccccccccccc"
     clip-path="url(#clipPath6556)"
     transform="matrix(0.12309697,0,0,0.12309697,-9.4705357,-6.7830317)" /></svg>
